<?xml version="1.0" standalone="no"?>
<!DOCTYPE svg PUBLIC "-//W3C//DTD SVG 20010904//EN"
 "http://www.w3.org/TR/2001/REC-SVG-20010904/DTD/svg10.dtd">
<svg version="1.0" xmlns="http://www.w3.org/2000/svg"
 width="900.000000pt" height="900.000000pt" viewBox="0 0 900.000000 900.000000"
 preserveAspectRatio="xMidYMid meet">
<metadata>
Created by potrace 1.10, written by Peter Selinger 2001-2011
</metadata>
<g transform="translate(0.000000,900.000000) scale(0.100000,-0.100000)"
fill="#ca1d1d" stroke="none">
<path d="M3930 8759 c-52 -4 -212 -13 -355 -19 -324 -14 -516 -25 -665 -39
-63 -6 -169 -16 -235 -22 -260 -23 -293 -27 -370 -38 -44 -7 -120 -18 -170
-26 -49 -8 -124 -19 -165 -26 -166 -25 -340 -58 -353 -66 -6 -3 -27 -10 -46
-14 -46 -10 -112 -33 -179 -64 -29 -14 -55 -25 -58 -25 -15 0 -77 -57 -85 -78
-23 -59 39 -132 112 -132 18 0 74 13 124 30 209 68 481 123 765 155 69 8 184
21 255 29 72 9 177 20 235 25 58 6 143 15 190 20 359 43 1381 67 2110 50 555
-12 875 -32 1380 -84 80 -8 174 -17 210 -19 73 -4 313 -33 338 -40 10 -3 46
-10 82 -16 140 -22 244 -45 395 -85 33 -9 83 -22 110 -30 28 -7 63 -18 78 -24
62 -24 118 -8 166 48 26 30 26 45 1 85 -21 34 -34 43 -120 76 -30 12 -67 28
-82 36 -14 8 -35 14 -46 14 -12 0 -23 4 -27 9 -3 5 -20 12 -38 16 -17 4 -50
12 -72 20 -22 7 -76 21 -120 30 -44 9 -97 21 -119 27 -21 5 -68 13 -105 18
-123 16 -226 31 -286 41 -33 6 -107 15 -165 19 -58 5 -157 14 -220 19 -322 30
-455 41 -560 45 -63 3 -169 10 -235 15 -314 27 -1430 41 -1675 20z"/>
<path d="M4145 8435 c-5 -2 -185 -9 -400 -14 -214 -6 -430 -15 -480 -20 -92
-11 -291 -26 -517 -41 -70 -5 -132 -11 -137 -14 -8 -5 -167 -25 -369 -46 -46
-5 -92 -12 -101 -15 -9 -3 -66 -12 -127 -20 -184 -25 -247 -36 -265 -46 -10
-5 -26 -9 -37 -9 -11 0 -42 -7 -68 -15 -27 -8 -66 -17 -86 -20 -48 -7 -54 -41
-11 -50 16 -3 48 -12 73 -19 25 -8 81 -22 125 -31 44 -10 107 -24 141 -31 33
-8 71 -14 83 -14 13 0 60 -7 105 -15 184 -33 234 -39 551 -69 94 -8 194 -20
224 -26 29 -5 115 -10 190 -10 75 0 173 -5 217 -10 230 -29 1200 -51 1669 -39
338 9 774 28 820 35 22 3 110 10 195 14 85 5 196 13 245 19 50 6 155 16 235
22 306 23 323 25 570 65 52 8 118 20 145 25 28 6 75 14 105 19 63 9 137 27
195 45 22 8 55 16 73 20 17 4 32 10 32 15 0 14 -43 40 -65 40 -12 0 -41 6 -66
14 -24 7 -75 20 -114 29 -38 8 -92 20 -120 26 -27 6 -83 16 -124 21 -40 6 -77
13 -82 16 -5 3 -50 9 -101 14 -51 5 -133 14 -183 20 -139 15 -370 37 -585 55
-107 9 -235 20 -285 26 -140 16 -220 18 -1315 34 -190 3 -349 3 -355 0z"/>
<path d="M1440 7880 c0 -11 4 -28 9 -38 16 -28 31 -108 31 -160 0 -26 6 -56
13 -65 7 -10 53 -28 112 -43 55 -14 116 -30 135 -36 19 -6 53 -15 75 -20 130
-25 185 -37 225 -46 105 -26 190 -42 212 -42 14 0 38 -4 54 -10 16 -5 63 -14
104 -19 178 -22 249 -32 310 -42 36 -6 106 -15 155 -19 95 -9 230 -23 405 -41
99 -10 160 -15 505 -38 179 -13 1326 -13 1510 -1 312 21 414 29 505 39 86 10
156 16 420 40 47 5 94 11 105 14 18 6 100 18 315 48 36 5 72 11 80 15 8 3 51
12 95 19 44 8 112 21 150 30 71 17 170 38 258 55 26 5 62 13 80 19 17 6 68 18
112 26 44 9 98 24 119 34 l39 17 2 80 c1 47 9 94 19 116 15 34 22 88 12 88 -2
0 -26 -9 -53 -21 -131 -57 -386 -123 -576 -149 -38 -5 -73 -12 -78 -16 -10 -6
-103 -19 -359 -49 -69 -8 -197 -19 -285 -25 -88 -5 -216 -14 -285 -19 -352
-29 -566 -35 -1450 -39 -650 -2 -969 0 -1045 8 -60 6 -180 15 -265 20 -85 5
-252 19 -370 30 -118 11 -264 25 -325 30 -173 15 -357 38 -395 49 -19 6 -48
11 -65 11 -30 0 -141 23 -205 43 -19 6 -53 14 -75 18 -63 12 -172 46 -242 76
-17 7 -38 13 -46 13 -9 0 -19 5 -22 10 -10 17 -25 11 -25 -10z"/>
<path d="M7429 7446 c-5 -5 -143 -32 -229 -46 -30 -4 -75 -13 -100 -19 -25 -6
-80 -18 -122 -26 -326 -64 -338 -67 -393 -75 -27 -4 -77 -12 -110 -18 -103
-19 -217 -35 -310 -42 -49 -4 -133 -12 -185 -18 -108 -13 -314 -28 -570 -42
-96 -5 -208 -14 -248 -20 -97 -13 -1110 -13 -1184 0 -30 6 -154 15 -274 20
-230 9 -418 24 -544 41 -41 5 -127 14 -190 19 -142 11 -283 27 -375 41 -38 6
-99 15 -135 19 -118 15 -270 42 -465 83 -159 34 -181 39 -210 47 -73 22 -167
33 -175 21 -8 -14 -3 -93 11 -166 6 -27 14 -88 18 -135 5 -47 14 -112 20 -145
10 -60 27 -169 42 -280 16 -123 49 -176 120 -195 24 -7 52 -16 61 -21 18 -9
60 -21 143 -39 28 -7 73 -18 100 -25 106 -29 142 -38 190 -45 49 -8 111 -23
170 -41 17 -5 57 -13 90 -18 181 -29 251 -41 265 -47 8 -3 51 -10 95 -14 95
-10 300 -35 405 -49 41 -6 109 -11 150 -11 41 0 103 -5 137 -10 59 -10 121
-14 588 -41 296 -17 1032 8 1204 41 29 5 83 10 120 10 36 0 111 7 166 15 55 8
152 19 215 26 215 21 265 27 315 37 52 12 139 27 240 42 33 5 94 18 135 30 41
12 95 25 120 29 25 4 52 11 60 16 8 5 40 12 70 16 55 6 167 33 205 48 21 9 77
24 155 43 67 16 83 31 102 95 25 86 48 197 48 229 0 16 4 45 10 64 5 19 14 78
19 130 16 144 39 310 50 355 13 51 1 92 -20 71z m-279 -396 c0 -61 -50 -388
-68 -449 -20 -63 -57 -97 -119 -107 -59 -9 -86 8 -78 49 3 18 10 41 15 52 53
120 100 241 100 258 0 8 9 26 20 40 11 14 20 30 20 36 0 6 4 19 9 29 6 9 21
43 35 75 23 53 27 57 46 47 11 -6 20 -19 20 -30z"/>
<path d="M1803 6333 c3 -27 10 -99 16 -162 6 -63 15 -130 21 -150 5 -20 10
-57 10 -83 0 -25 7 -82 15 -125 8 -43 15 -100 15 -128 1 -27 5 -70 10 -95 6
-25 17 -106 25 -180 9 -74 22 -189 30 -255 9 -66 20 -163 25 -215 6 -52 13
-102 16 -110 6 -15 27 -188 44 -358 5 -51 12 -96 15 -102 3 -5 10 -65 15 -133
5 -68 14 -136 20 -151 5 -15 10 -48 10 -74 0 -26 5 -74 11 -107 12 -70 36
-260 48 -390 5 -49 14 -119 20 -155 10 -65 31 -229 37 -305 4 -38 22 -173 45
-335 5 -41 14 -119 20 -173 5 -55 12 -103 15 -108 3 -5 10 -53 15 -106 5 -52
13 -121 18 -152 6 -31 18 -103 28 -160 25 -146 50 -177 228 -278 62 -36 287
-144 370 -178 22 -9 54 -22 70 -30 17 -7 55 -20 85 -30 30 -9 64 -20 75 -25
11 -5 54 -18 95 -30 41 -12 86 -27 100 -32 14 -6 45 -14 70 -18 25 -5 63 -13
85 -18 82 -20 193 -41 305 -57 63 -9 140 -20 171 -26 84 -14 509 -31 624 -24
55 3 152 7 215 10 63 3 149 10 190 15 41 6 122 18 180 26 58 8 134 21 170 29
36 7 85 16 109 20 24 3 67 17 96 30 28 14 64 25 79 25 15 0 43 7 63 15 19 8
45 15 58 15 12 0 53 12 91 26 38 14 85 30 105 34 72 18 322 131 484 219 181
98 230 153 246 276 9 77 25 191 44 330 8 61 17 128 19 150 8 80 34 292 45 360
20 137 31 221 41 315 6 52 14 118 20 145 5 28 9 75 9 105 1 30 6 72 11 92 6
20 15 76 20 125 15 151 30 276 41 338 5 33 14 101 19 150 5 50 14 124 20 165
18 126 40 293 44 340 12 115 51 421 72 560 8 53 14 113 14 134 0 20 4 56 10
79 5 23 14 87 19 142 19 187 40 360 50 405 6 25 11 72 11 105 0 33 4 75 10 94
5 18 12 78 16 132 l7 99 -29 0 c-16 0 -49 -7 -74 -15 -25 -8 -70 -21 -100 -29
-30 -8 -82 -21 -115 -30 -113 -30 -180 -44 -363 -75 -29 -5 -74 -14 -100 -20
-85 -18 -166 -32 -237 -42 -38 -5 -90 -13 -115 -18 -133 -28 -347 -53 -625
-71 -88 -6 -189 -15 -225 -20 -176 -27 -1326 -20 -1670 9 -177 15 -398 40
-465 53 -33 6 -89 14 -125 18 -121 15 -268 40 -294 50 -15 5 -42 10 -59 10
-33 0 -172 25 -222 40 -16 5 -59 14 -95 20 -107 17 -317 67 -440 106 -25 8
-58 14 -73 14 -28 0 -29 -1 -24 -47z m5218 -113 c24 -13 25 -57 4 -195 -39
-266 -45 -321 -45 -427 0 -71 -4 -118 -11 -125 -17 -17 -26 -67 -64 -358 -9
-66 -20 -148 -25 -181 -6 -34 -10 -79 -10 -100 0 -22 -7 -70 -16 -109 -8 -38
-19 -108 -24 -155 -11 -104 -27 -225 -41 -307 -6 -34 -15 -101 -19 -150 -5
-48 -14 -122 -20 -163 -17 -121 -39 -282 -44 -325 -15 -134 -36 -291 -41 -304
-4 -9 -10 -56 -15 -106 -10 -103 -26 -223 -41 -310 -5 -33 -14 -96 -19 -140
-5 -44 -14 -114 -20 -155 -5 -41 -17 -127 -26 -190 -8 -63 -20 -142 -25 -175
-6 -33 -14 -94 -18 -135 -9 -73 -28 -221 -38 -289 -2 -20 -16 -45 -33 -61 -32
-30 -101 -56 -124 -47 -21 8 -21 64 -1 177 8 47 15 108 15 136 0 28 4 64 10
80 9 28 31 212 34 284 1 19 5 53 9 75 22 113 29 158 38 240 23 204 46 381 75
575 8 53 14 114 14 135 0 22 5 56 10 75 5 20 14 81 19 135 9 96 19 168 42 320
6 39 15 104 20 145 17 146 52 416 75 576 7 56 14 119 14 140 0 22 4 55 10 74
5 19 14 78 20 130 5 52 14 129 20 170 6 41 17 127 25 190 9 63 20 147 25 185
6 39 14 112 19 162 6 51 13 97 16 103 3 5 10 51 15 102 14 150 30 242 45 257
12 12 91 45 118 50 5 0 17 -4 28 -9z"/>
<path d="M6510 1639 c-76 -43 -173 -92 -245 -124 -33 -14 -80 -35 -105 -46
-25 -11 -52 -24 -60 -28 -9 -5 -30 -12 -48 -15 -17 -4 -34 -12 -37 -17 -4 -5
-14 -9 -23 -9 -9 0 -30 -7 -46 -15 -15 -8 -34 -15 -42 -15 -7 0 -28 -6 -46
-14 -18 -7 -58 -20 -88 -29 -30 -8 -80 -22 -110 -30 -30 -9 -86 -23 -125 -31
-38 -8 -104 -22 -145 -31 -108 -23 -239 -41 -475 -64 -136 -14 -656 -14 -785
-1 -269 28 -507 64 -597 91 -18 6 -54 14 -80 19 -59 11 -126 28 -173 45 -19 7
-60 20 -90 29 -30 10 -72 24 -92 32 -21 8 -56 21 -78 29 -81 30 -126 48 -155
61 -71 30 -293 140 -327 161 -56 35 -74 31 -81 -17 -10 -77 22 -336 46 -371
27 -38 187 -129 344 -196 18 -7 47 -20 65 -27 18 -8 53 -22 78 -31 25 -10 59
-24 77 -31 17 -8 35 -14 41 -14 5 0 23 -7 38 -15 16 -8 36 -15 44 -15 8 0 53
-14 100 -30 46 -17 96 -30 111 -30 15 0 30 -4 34 -9 3 -6 27 -13 53 -17 26 -3
67 -12 92 -19 40 -12 87 -20 305 -56 92 -15 299 -29 520 -36 201 -5 655 16
775 37 30 6 84 15 120 21 147 25 173 30 191 39 10 6 28 10 41 10 13 0 43 6 68
14 25 8 70 21 100 30 70 20 269 84 295 95 11 5 40 16 65 26 150 57 386 172
457 223 51 36 65 101 86 417 3 41 -24 42 -93 4z m-97 -189 c5 -19 7 -81 5
-137 -3 -81 -7 -105 -22 -122 -50 -56 -164 -81 -186 -42 -5 11 -10 75 -10 144
0 115 1 125 23 144 12 12 37 24 54 28 18 3 35 11 39 16 3 6 24 9 47 7 37 -3
42 -6 50 -38z"/>
<path d="M2607 1013 c-4 -3 -7 -40 -7 -82 1 -66 5 -83 33 -133 46 -82 179
-212 282 -275 109 -67 359 -177 461 -202 18 -5 37 -12 43 -15 34 -21 348 -89
486 -106 44 -5 112 -14 150 -21 47 -8 202 -12 470 -12 351 1 419 3 555 22 85
12 173 26 195 31 22 5 76 16 120 26 44 9 121 27 170 41 50 13 108 29 130 34
22 6 44 14 49 20 6 5 17 9 25 9 9 0 29 7 45 15 15 8 32 15 36 15 25 0 263 125
343 179 60 41 164 142 209 202 44 58 69 179 48 229 -7 16 -17 30 -22 30 -11 0
-169 -64 -211 -86 -16 -8 -35 -14 -43 -14 -8 0 -25 -6 -37 -14 -22 -14 -238
-88 -352 -121 -33 -9 -80 -23 -105 -30 -195 -57 -312 -81 -555 -115 -357 -49
-648 -61 -895 -36 -358 36 -518 59 -607 87 -18 6 -54 14 -80 19 -62 12 -160
36 -198 48 -16 5 -57 18 -90 28 -108 32 -239 76 -272 90 -17 8 -36 14 -41 14
-6 0 -23 6 -39 14 -15 8 -48 22 -73 31 -51 20 -67 26 -130 53 -63 27 -85 33
-93 25z m3741 -127 c5 -25 -27 -82 -54 -96 -34 -19 -59 -9 -62 25 -6 62 105
130 116 71z"/>
</g>
</svg>
